<svg id="图层_1" data-name="图层 1" xmlns="http://www.w3.org/2000/svg" viewBox="0 0 124.68 22"><defs><style>.cls-1{fill:#ee0051;}.cls-1,.cls-2,.cls-3,.cls-4,.cls-6{fill-rule:evenodd;}.cls-2{fill:#00dff4;}.cls-3,.cls-7{fill:#160a19;}.cls-4{fill:#049dde;}.cls-5{fill:#fff;}.cls-6{fill:#ff4383;}</style></defs><title>piaoquan_logo</title><path class="cls-1" d="M15,3.85A9.35,9.35,0,0,0,7,8.4a1.12,1.12,0,0,0-.36-.05A1.3,1.3,0,0,0,5.33,9.66V22.94a1.31,1.31,0,0,0,2.62,0V19.36A9.37,9.37,0,1,0,15,3.85Zm0,13.5a4.13,4.13,0,1,1,4.12-4.13A4.13,4.13,0,0,1,15,17.35Z" transform="translate(-3.08 -2.35)"/><path class="cls-2" d="M22.15,11.57A9.38,9.38,0,0,0,4.74,6.89a1.34,1.34,0,0,0-.35,0A1.3,1.3,0,0,0,3.08,8.16V23A1.31,1.31,0,1,0,5.7,23V17.87a9.37,9.37,0,0,0,16.45-6.15Z" transform="translate(-3.08 -2.35)"/><path class="cls-3" d="M13.67,3.31a9.39,9.39,0,0,0-8,4.48H5.51A1.32,1.32,0,0,0,4.2,9.1V22.91a1.32,1.32,0,0,0,2.63,0V19.08A9.37,9.37,0,1,0,13.67,3.31Zm0,13.5a4.13,4.13,0,1,1,4.13-4.13A4.13,4.13,0,0,1,13.67,16.81Z" transform="translate(-3.08 -2.35)"/><path class="cls-4" d="M13.67,5.93a6.76,6.76,0,0,0-6.75,6.75h0a6.75,6.75,0,0,0,13.5,0h0A6.75,6.75,0,0,0,13.67,5.93Z" transform="translate(-3.08 -2.35)"/><path class="cls-5" d="M14.57,10.73a.47.47,0,0,1,.66.67h0l-1,1h.23a.66.66,0,0,1,.66.64v0a.66.66,0,0,1-.19.46h0L13.34,15a.46.46,0,0,1-.66,0,.47.47,0,0,1,0-.65h0l1-1h-.23a.66.66,0,0,1-.46-.19l0,0a.66.66,0,0,1,0-.91h0Z" transform="translate(-3.08 -2.35)"/><path class="cls-1" d="M45.16,8.35a1,1,0,0,0-.35.05,9.38,9.38,0,1,0-1,11v3.58a1.32,1.32,0,0,0,2.63,0V9.66A1.31,1.31,0,0,0,45.16,8.35Z" transform="translate(-3.08 -2.35)"/><path class="cls-2" d="M43.35,8.57a9.39,9.39,0,1,0-1.75,9.29V23a1.32,1.32,0,1,0,2.63,0V9.81A1.32,1.32,0,0,0,43.35,8.57Z" transform="translate(-3.08 -2.35)"/><path class="cls-3" d="M44,7.78a1.35,1.35,0,0,0-.5.1,9.38,9.38,0,1,0-.81,10.76v4.27a1.31,1.31,0,1,0,2.62,0V9.1A1.32,1.32,0,0,0,44,7.78Z" transform="translate(-3.08 -2.35)"/><path class="cls-6" d="M35.49,5.93a6.75,6.75,0,0,1,6.75,6.75h0a6.75,6.75,0,1,1-13.5,0h0A6.75,6.75,0,0,1,35.49,5.93Z" transform="translate(-3.08 -2.35)"/><path class="cls-5" d="M36.07,10.73a.47.47,0,0,1,.66,0,.48.48,0,0,1,0,.66h0l-1,1h.23a.64.64,0,0,1,.65.64v0a.62.62,0,0,1-.19.46h0L34.84,15a.47.47,0,0,1-.67,0,.47.47,0,0,1,0-.65h0l1-1H35a.66.66,0,0,1-.46-.19v0a.65.65,0,0,1,0-.91h0Z" transform="translate(-3.08 -2.35)"/><path class="cls-7" d="M57.71,6.56h5.37V7.69H59.92A2.24,2.24,0,0,0,57.73,10v2.85H73.52V7.69H68.83V6.56h4.71V4.85H57.71ZM59.37,10a.56.56,0,0,1,.55-.57h3.16v1.71H59.37Zm5.35-.57h2.47v1.71H64.72Zm7.15,0v1.71h-3V9.4ZM67.19,7.69H64.72V6.56h2.47Z" transform="translate(-3.08 -2.35)"/><rect class="cls-7" x="55.69" y="11.06" width="13.7" height="1.71"/><path class="cls-7" d="M73.51,17.38V15.66H57.71v1.72h7.61v1.9a.84.84,0,0,1-.83.85h-1v1.72h1A2.53,2.53,0,0,0,67,19.28v-1.9Z" transform="translate(-3.08 -2.35)"/><path class="cls-7" d="M88.89,4.85h-11a2.24,2.24,0,0,0-2.19,2.28V21.84H91.08V7.13A2.24,2.24,0,0,0,88.89,4.85Zm.54,15.27H77.36v-13a.56.56,0,0,1,.55-.57h11a.55.55,0,0,1,.54.57Z" transform="translate(-3.08 -2.35)"/><polygon class="cls-7" points="96.21 8.19 96.21 4.81 90.19 4.81 90.19 6.52 94.57 6.52 94.57 7.5 91.64 10.67 90.18 10.67 90.18 12.38 92.33 12.38 92.45 12.25 92.45 19.45 94.1 19.45 94.1 10.48 96.21 8.19"/><rect class="cls-7" x="91.83" y="2.5" width="2.74" height="1.71"/><path class="cls-7" d="M99.29,15.91V13.09H97.64v2.82a2.24,2.24,0,0,0,2.2,2.28h.62V16.48h-.62A.56.56,0,0,1,99.29,15.91Z" transform="translate(-3.08 -2.35)"/><path class="cls-7" d="M107,4.85h-3.85A2.24,2.24,0,0,0,101,7.13v9.36h1.64V7.13a.56.56,0,0,1,.55-.57H107a.56.56,0,0,1,.55.57v9.36h1.64V7.13A2.24,2.24,0,0,0,107,4.85Z" transform="translate(-3.08 -2.35)"/><path class="cls-7" d="M107.32,19.55V17.06h-1.56l.17-.4V8h-1.65v8.33l-1.44,3.47a.55.55,0,0,1-.51.34h-1.51v1.72h1.51a2.2,2.2,0,0,0,2-1.38l1.33-3.19v2.28a2.24,2.24,0,0,0,2.19,2.29h1.33V20.12h-1.33A.56.56,0,0,1,107.32,19.55Z" transform="translate(-3.08 -2.35)"/><path class="cls-7" d="M113.9,15.91V13.14h-1.65v2.77a.56.56,0,0,1-.55.57h-.3v1.71h.3A2.24,2.24,0,0,0,113.9,15.91Z" transform="translate(-3.08 -2.35)"/><path class="cls-7" d="M125.57,7.89h-.94V6.7h3.12V5h-8.16V6.7H123V7.89h-3.46v9.47h1.64V9.6h4.4a.56.56,0,0,1,.54.57v7.19h1.65V10.17A2.24,2.24,0,0,0,125.57,7.89Z" transform="translate(-3.08 -2.35)"/><path class="cls-7" d="M126.22,19.85l-1.65-2.76V11h-1.65v6.11l-1.46,2.72a.55.55,0,0,1-.48.29h-1.36v1.72H121a2.19,2.19,0,0,0,1.91-1.17l.89-1.65,1,1.74a2.17,2.17,0,0,0,1.86,1.08h1V20.12h-1A.53.53,0,0,1,126.22,19.85Z" transform="translate(-3.08 -2.35)"/><path class="cls-7" d="M60,19.79a.53.53,0,0,1-.5.34h-1.8v1.72h1.8a2.19,2.19,0,0,0,2-1.38L62.61,18H60.82Z" transform="translate(-3.08 -2.35)"/><path class="cls-7" d="M71.25,19.78,70.54,18H68.76l1,2.47a2.19,2.19,0,0,0,2,1.43h1.78V20.13H71.76A.54.54,0,0,1,71.25,19.78Z" transform="translate(-3.08 -2.35)"/><path class="cls-7" d="M87.57,7.13H85.75L85,8.78h-.79V7.12H82.58V8.78h-.79L81,7.12H79.22L80,8.78H78.45v1.71h4.13v.35l-.11.08h-4v1.71h1.63l-.47.34a.52.52,0,0,1-.31.1h-.85v1.71h.21v2.53a2.24,2.24,0,0,0,2.2,2.28h7.5V17.88h-7.5a.55.55,0,0,1-.55-.57v-2h6.2v.46H81.69v1.71h5.1a1.4,1.4,0,0,0,1.37-1.42V14.78h.2V13.07H87.28A.5.5,0,0,1,87,13l-.48-.34h1.87V10.92H84.22v-.43h4.14V8.78H86.82Zm-2.65,6.46H81.64l1.34-1h.6Z" transform="translate(-3.08 -2.35)"/><path class="cls-7" d="M116.52,16.09V11.3H119V9.59h-2.52V7.53H119V5.82h-2.52V4.93h-1.65V9.59h-1V5.84h-1.65V9.59h-.85V11.3h3.47v6.47H116l-.48,1.67a.55.55,0,0,1-.53.4H111.4v1.71H115a2.19,2.19,0,0,0,2.1-1.61l2-6.8h-1.72Z" transform="translate(-3.08 -2.35)"/></svg>